<svg width="24" height="24" viewBox="0 0 24 24" fill="none" xmlns="http://www.w3.org/2000/svg">
<rect width="24" height="24" fill="white"/>
<path d="M11.5 9.78274L17.9271 3.35566C18.4013 2.88145 19.1701 2.88145 19.6443 3.35566C20.1186 3.82986 20.1186 4.59871 19.6443 5.07291L13.2173 11.5L19.6443 17.9271C20.1186 18.4013 20.1186 19.1701 19.6443 19.6443C19.1701 20.1186 18.4013 20.1186 17.9271 19.6443L11.5 13.2173L5.07291 19.6443C4.59871 20.1186 3.82986 20.1186 3.35566 19.6443C2.88145 19.1701 2.88145 18.4013 3.35566 17.9271L9.78274 11.5L3.35566 5.07291C2.88145 4.59871 2.88145 3.82986 3.35566 3.35566C3.82986 2.88145 4.59871 2.88145 5.07291 3.35566L11.5 9.78274Z" fill="#8C8C8C"/>
</svg>
