<svg width="124" height="124" viewBox="0 0 124 124" fill="none" xmlns="http://www.w3.org/2000/svg">
<circle r="62" transform="matrix(1 0 0 -1 62 62)" fill="#E4E4E4"/>
<path d="M38.6978 94.3341C45.4541 95.4447 52.3956 96 59.152 96C59.5222 96 59.8923 96 60.2626 96C67.4817 95.9074 74.7008 95.2596 81.9199 93.9638C87.1954 92.9457 92.3784 87.8554 93.489 82.5799C94.7847 76.1012 95.4326 69.4374 95.4326 62.9587C95.4326 56.48 94.7847 49.8162 93.489 43.3375C92.3784 38.1545 87.1954 33.0642 81.9199 32.0461C74.7934 30.7503 67.4817 30.0099 60.2626 30.0099C53.0434 29.9174 45.8244 30.4727 38.6053 31.6759C33.3298 32.6014 28.0542 37.6918 26.9436 43.0599C25.6478 49.7236 25 56.3874 25 63.0512C25 69.715 25.6478 76.3788 26.9436 83.1352C28.1468 88.3181 33.3297 93.4085 38.6978 94.3341ZM33.3297 44.263C33.8851 41.579 37.0319 38.4322 39.7159 37.9695C46.1946 36.9514 52.6733 36.396 59.152 36.396C59.5222 36.396 59.8923 36.396 60.2626 36.396C67.1115 36.4886 73.9604 37.1365 80.7167 38.3397C83.4008 38.895 86.6401 41.9492 87.1028 44.5407C88.306 50.6491 88.8614 56.8502 88.8614 62.9587C88.8614 69.0672 88.306 75.2682 87.1028 81.2841C86.5475 83.8756 83.4008 87.0224 80.7167 87.5777C73.9604 88.7809 67.0189 89.5213 60.2626 89.5213C53.4137 89.6139 46.5648 89.0585 39.8084 87.9479C37.1244 87.4851 33.9776 84.3383 33.4223 81.7469C32.2191 75.5458 31.5712 69.1597 31.5712 62.9587C31.5712 56.7577 32.1266 50.4641 33.3297 44.263Z" fill="#C5C5C5"/>
<path d="M43.5107 74.6207C43.5107 76.3792 44.9916 77.86 46.7501 77.86H73.7755C75.534 77.86 77.0148 76.3792 77.0148 74.6207C77.0148 72.8622 75.534 71.3813 73.7755 71.3813H46.7501C44.9916 71.3813 43.5107 72.8622 43.5107 74.6207Z" fill="#C5C5C5"/>
<path d="M46.7494 60.6453C49.1518 60.6453 51.0994 58.6977 51.0994 56.2953C51.0994 53.8929 49.1518 51.9453 46.7494 51.9453C44.347 51.9453 42.3994 53.8929 42.3994 56.2953C42.3994 58.6977 44.347 60.6453 46.7494 60.6453Z" fill="#C5C5C5"/>
<path d="M73.7758 60.6453C76.1782 60.6453 78.1258 58.6977 78.1258 56.2953C78.1258 53.8929 76.1782 51.9453 73.7758 51.9453C71.3733 51.9453 69.4258 53.8929 69.4258 56.2953C69.4258 58.6977 71.3733 60.6453 73.7758 60.6453Z" fill="#C5C5C5"/>
</svg>
