<svg width="34" height="34" viewBox="0 0 34 34" fill="none" xmlns="http://www.w3.org/2000/svg">
<circle cx="17" cy="17" r="16.5" fill="#E4E4E4" stroke="white"/>
<path d="M16.7805 13.9292C14.7812 13.9292 13.1611 15.5505 13.1611 17.5486C13.1611 19.5479 14.7812 21.1679 16.7805 21.1679C18.7786 21.1679 20.3998 19.5479 20.3998 17.5486C20.3998 15.5505 18.7786 13.9292 16.7805 13.9292Z" fill="#A9A9A9"/>
<path d="M25.7742 10.9676H23.1414C22.7795 10.9676 22.3895 10.687 22.2762 10.3431L21.5952 8.30143C21.4804 7.95778 21.0914 7.67725 20.7295 7.67725H13.2704C12.9085 7.67725 12.5185 7.95778 12.405 8.30168L11.724 10.3434C11.6094 10.6873 11.2207 10.9678 10.8585 10.9678H8.22578C7.01981 10.9678 6.03223 11.9554 6.03223 13.1614V23.0321C6.03223 24.238 7.01981 25.2256 8.22578 25.2256H25.7742C26.9801 25.2256 27.9677 24.238 27.9677 23.0321V13.1611C27.9677 11.9552 26.9801 10.9676 25.7742 10.9676ZM17 23.0321C13.9709 23.0321 11.5161 20.5773 11.5161 17.5482C11.5161 14.5204 13.9709 12.0643 17 12.0643C20.0278 12.0643 22.4838 14.5204 22.4838 17.5482C22.4838 20.5773 20.0278 23.0321 17 23.0321ZM25.0062 14.7717C24.5409 14.7717 24.1614 14.3934 24.1614 13.9269C24.1614 13.4614 24.5409 13.0834 25.0062 13.0834C25.4727 13.0834 25.8509 13.4616 25.8509 13.9269C25.8509 14.3934 25.4727 14.7717 25.0062 14.7717Z" fill="#A9A9A9"/>
</svg>
