<svg width="34" height="34" viewBox="0 0 34 34" fill="none" xmlns="http://www.w3.org/2000/svg">
<circle cx="17" cy="17" r="17" fill="#A9A9A9"/>
<path d="M17 15.5858L22.2929 10.2929C22.6834 9.90237 23.3166 9.90237 23.7071 10.2929C24.0976 10.6834 24.0976 11.3166 23.7071 11.7071L18.4142 17L23.7071 22.2929C24.0976 22.6834 24.0976 23.3166 23.7071 23.7071C23.3166 24.0976 22.6834 24.0976 22.2929 23.7071L17 18.4142L11.7071 23.7071C11.3166 24.0976 10.6834 24.0976 10.2929 23.7071C9.90237 23.3166 9.90237 22.6834 10.2929 22.2929L15.5858 17L10.2929 11.7071C9.90237 11.3166 9.90237 10.6834 10.2929 10.2929C10.6834 9.90237 11.3166 9.90237 11.7071 10.2929L17 15.5858Z" fill="white"/>
</svg>
